<svg
   height="50px" width="50px"  
   xmlns="http://www.w3.org/2000/svg" viewBox="0 0 520 597"
   >
  <g
     >
    <path
       fill="black"
       d="m 427.5,16.5 v 20 c -111.667,-0.1667 -223.334,0 -335,0.5 -1.2375,0.2321 -2.2375,0.7321 -3,1.5 -17.6063,7.5376 -25.1063,20.871 -22.5,40 3.7061,12.7762 11.8728,21.1096 24.5,25 120.499,1 241.166,1.333 362,1 v 1 1 c 1.12028,164.94746 0,298.85948 0,449 -2.283,14.615 -10.616,23.281 -25,26 -126.66394,2.44775 -272.9724,1.51997 -376.667371,-0.30652 C 49.768329,581.00648 45.4357,579.813 43.5,579 34.8042,573.965 29.6375,566.465 28,556.5 c 6.413502,-47.47681 -0.804346,-454.15889 0,-493 0.1439,-9.6139 3.3106,-17.9473 9.5,-25 0.6174,-0.1107 1.1174,-0.444 1.5,-1 C 50.802089,24.385381 58.774586,20.651182 72.213262,16.786738 189.46223,14.104476 309.27911,16.5 427.5,16.5 Z"
     />
  </g>
  <g
     >
    <path
       fill="black"
       d="m 484.5,166.5 c 1.333,0 2.667,0 4,0 12.254,4.445 19.254,13.278 21,26.5 -1.118,15.945 -9.452,25.445 -25,28.5 -6.333,0 -12.667,0 -19,0 0,-18.333 0,-36.667 0,-55 6.333,0 12.667,0 19,0 z"
       />
  </g>
  <g
   >
    <path fill="white"
       d="m 198.5,239.5 c 0.223,3.662 1.223,6.995 3,10 3.564,8.273 4.897,16.939 4,26 -6.901,9.407 -14.735,18.073 -23.5,26 -2.27,4.43 -2.937,9.097 -2,14 5.422,10.764 12.422,20.43 21,29 17.309,19.98 36.475,37.814 57.5,53.5 8.504,5.025 16.504,4.359 24,-2 6.697,-7.032 13.697,-13.698 21,-20 7.787,-0.811 15.453,-0.145 23,2 24.671,6.835 47.004,18.168 67,34 1.258,1.741 2.258,3.574 3,5.5 0.153,6.369 -0.18,12.703 -1,19 -2.125,17.201 -6.958,33.534 -14.5,49 -5.259,9.875 -13.425,13.375 -24.5,10.5 -11.013,-1.102 -21.68,-3.269 -32,-6.5 -2.405,-1.268 -5.072,-1.935 -8,-2 C 271.822,473.31 232.155,450.477 197.5,419 159.693,385.211 129.527,345.711 107,300.5 96.0322,276.259 88.6989,250.925 85,224.5 c -0.6667,-5 -0.6667,-10 0,-15 0.6355,-1.466 1.4688,-2.8 2.5,-4 11.806,-8.438 24.806,-14.271 39,-17.5 12.509,-3.059 25.175,-4.059 38,-3 1.833,1.167 3.667,2.333 5.5,3.5 11.979,15.559 21.479,32.559 28.5,51 z"
      />
  </g>
  <g
     >
    <path
       fill="black"
       d="m 484.5,258.5 c 19.108,4.533 26.941,16.533 23.5,36 -3.697,9.898 -10.53,16.231 -20.5,19 -7.333,0 -14.667,0 -22,0 0,-18.333 0,-36.667 0,-55 6.333,0 12.667,0 19,0 z"
      />
  </g>
  <g
     >
    <path
       fill="black"
       d="M 485.5,350.5 C 505.701,356.231 512.868,369.231 507,389.5C 502.619,397.953 495.785,403.453 486.5,406C 479.508,406.5 472.508,406.666 465.5,406.5C 465.5,387.833 465.5,369.167 465.5,350.5C 472.167,350.5 478.833,350.5 485.5,350.5 Z"
     />
  </g>
  <g>
    <path
       fill="black"
       d="m 484.5,442.5 c 20.752,5.27 28.252,18.27 22.5,39 -4.677,9.343 -12.177,14.843 -22.5,16.5 -6.325,0.5 -12.658,0.666 -19,0.5 0,-18.667 0,-37.333 0,-56 6.333,0 12.667,0 19,0 z"
        />
  </g>
</svg>
